<?xml version="1.0" encoding="utf-8"?>
<!-- Generator: Adobe Illustrator 27.5.0, SVG Export Plug-In . SVG Version: 6.00 Build 0)  -->
<svg version="1.1" xmlns="http://www.w3.org/2000/svg" xmlns:xlink="http://www.w3.org/1999/xlink" x="0px" y="0px"
	 viewBox="0 0 170.3 262.3" style="enable-background:new 0 0 170.3 262.3;" xml:space="preserve">
<style type="text/css">
	.st0{fill:#E6E7E8;}
	.st1{fill:#FFFFFF;}
</style>
<g id="Layer_2">
	<rect x="-140.6" y="-873.5" class="st0" width="841.9" height="595.3"/>
	<rect x="-140.6" y="-873.5" class="st1" width="841.9" height="70.9"/>
	<rect x="-1001.5" y="-873.5" class="st0" width="841.9" height="595.3"/>
	<rect x="-1001.5" y="-873.5" class="st1" width="841.9" height="70.9"/>
</g>
<g id="Layer_1">
	<path d="M590.6-823.3h-23.2c-1,0-1.8-0.8-1.8-1.8v-23.2c0-1,0.8-1.8,1.8-1.8h23.2c1,0,1.8,0.8,1.8,1.8v23.2
		C592.4-824.1,591.6-823.3,590.6-823.3z"/>
	<text transform="matrix(1 0 0 1 -106.3577 -830.9852)" style="font-family:'SDGothicNeob-fBd-KSCpc-EUC-H'; font-size:17.7595px;">디저트39 로고</text>
	<g>
		<text transform="matrix(1 0 0 1 601.2156 -843.6449)"><tspan x="0" y="0" style="font-family:'SDGothicNeob-fBd-KSCpc-EUC-H'; font-size:7px;">Pantone Process Black C</tspan><tspan x="0" y="9" style="font-family:'SDGothicNeob-aUltLt-KSCpc-EUC-H'; font-size:7px;">C0 M0 Y0 K100</tspan><tspan x="0" y="18" style="font-family:'SDGothicNeob-aUltLt-KSCpc-EUC-H'; font-size:7px;">R44 G42 B41</tspan></text>
	</g>
	<path d="M-270.2-823.3h-23.2c-1,0-1.8-0.8-1.8-1.8v-23.2c0-1,0.8-1.8,1.8-1.8h23.2c1,0,1.8,0.8,1.8,1.8v23.2
		C-268.5-824.1-269.3-823.3-270.2-823.3z"/>
	<text transform="matrix(1 0 0 1 -967.2273 -830.9852)" style="font-family:'SDGothicNeob-fBd-KSCpc-EUC-H'; font-size:17.7595px;">디저트39 캐릭터</text>
	<g>
		<text transform="matrix(1 0 0 1 -259.6539 -843.6449)"><tspan x="0" y="0" style="font-family:'SDGothicNeob-fBd-KSCpc-EUC-H'; font-size:7px;">Pantone Process Black C</tspan><tspan x="0" y="9" style="font-family:'SDGothicNeob-aUltLt-KSCpc-EUC-H'; font-size:7px;">C0 M0 Y0 K100</tspan><tspan x="0" y="18" style="font-family:'SDGothicNeob-aUltLt-KSCpc-EUC-H'; font-size:7px;">R44 G42 B41</tspan></text>
	</g>
	<g>
		<path d="M113.1,310.3c0,4.6,0,9.1,0,13.6c-2.9,0-5.7,0-8.6,0c0-7.2,0-14.3,0-21.6c0.2,0,0.5,0,0.7,0c4.9,0,9.8,0,14.7,0
			c0.6,0,1.1,0,1.7-0.2c1.8-0.5,2.7-2.1,2.5-3.9c-0.2-1.6-1.6-2.9-3.3-3c-0.4,0-0.8,0-1.1,0c-4.8,0-9.6,0-14.4,0c-0.2,0-0.5,0-0.8,0
			c0-2.7,0-5.3,0-7.9c0.2,0,0.4,0,0.6,0c5,0,9.9,0,14.9,0c3,0,5.7,0.6,8.1,2.4c3.5,2.6,5,6,4.6,10.3c-0.4,4.2-2.6,7.1-6.3,8.9
			c-0.1,0-0.1,0.1-0.2,0.1c3.8,4.9,7.5,9.9,11.4,14.9c-0.3,0-0.4,0-0.6,0c-3.1,0-6.2,0-9.3,0c-0.4,0-0.6-0.1-0.8-0.4
			c-3.3-4.3-6.6-8.6-9.9-12.9c-0.2-0.3-0.5-0.5-0.9-0.5C115.2,310.3,114.2,310.3,113.1,310.3z"/>
		<path d="M-65,295.2c0,4.6,0,9.1,0,13.7c-2.9,0-5.7,0-8.5,0c0-7.2,0-14.4,0-21.6c0.1,0,0.3,0,0.4,0c4.8,0,9.6-0.1,14.4,0.1
			c8.6,0.4,15.9,6.6,17.3,15.1c1.6,9.8-4.6,19-14.4,21c-1.6,0.3-3.3,0.4-4.9,0.5c-2.1,0.1-4.2,0-6.3,0c0-2.6,0-5.2,0-7.9
			c0.2,0,0.4,0,0.6,0c2,0,4.1,0.1,6.1,0c4.4-0.3,7.7-2.3,9.4-6.4c2.5-6-0.9-12.6-7.3-14.1c-0.8-0.2-1.6-0.3-2.4-0.3
			C-62,295.2-63.5,295.2-65,295.2z"/>
		<path d="M-7.9,316c0,2.7,0,5.3,0,7.9c-8.7,0-17.5,0-26.2,0c0-7.5,0-14.9,0-22.4c8,0,16,0,24.1,0c0,2.6,0,5.2,0,7.9
			c-5.2,0-10.3,0-15.5,0c0,2.2,0,4.4,0,6.6C-19.7,316-13.8,316-7.9,316z"/>
		<path d="M78.9,316.1c5.9,0,11.7,0,17.6,0c0,2.6,0,5.3,0,7.9c-8.7,0-17.4,0-26.2,0c0-7.5,0-14.9,0-22.4c8,0,16,0,24,0
			c0,2.6,0,5.2,0,7.9c-5.1,0-10.3,0-15.5,0C78.9,311.6,78.9,313.8,78.9,316.1z"/>
		<path d="M197.9,324.8c0-0.3,0-0.6,0-0.9c0-2.1,0-4.2,0-6.4c0-0.6,0.1-0.9,0.7-1.1c1.3-0.5,2.3-1.3,2.7-2.7c0.5-2.1-0.8-4.3-3-5
			c-0.8-0.2-1.6-0.3-2.5-0.4c-1.8-0.1-3.5,0-5.3,0c-0.2,0-0.4,0-0.7,0c0-2.4,0-4.7,0-7.1c0.2,0,0.5,0,0.7,0c2.1,0,4.2,0,6.2-0.1
			c1.5-0.1,2.6-0.9,3.1-2.3c0.5-1.3,0.3-2.5-0.6-3.6c-0.3-0.4-0.8-0.6-1.3-0.9c-0.2-0.1-0.4-0.3-0.4-0.5c0-2.4,0-4.8,0-7.1
			c0-0.1,0-0.2,0.1-0.3c2.9,0.1,5.6,1,7.8,2.9c2.5,2.1,3.7,4.8,3.5,8.1c-0.2,2.5-1.3,4.6-3.1,6.3c-0.1,0.1-0.3,0.2-0.4,0.3
			c0.9,0.9,1.8,1.6,2.5,2.5c3.2,4,3,9.7-0.3,13.6C205.1,323.3,201.4,324.7,197.9,324.8z"/>
		<path d="M229,325.4c-2.1-2.2-4-4.2-6.1-6.2c0.1,0,0.2-0.2,0.4-0.3c3.3-2.5,6.3-5.3,8.5-8.9c1.5-2.5,2.6-5.1,3-8
			c0.4-3.1-0.3-5.8-3.2-7.5c-0.1-0.1-0.3-0.3-0.3-0.5c0-2.6,0-5.1,0-7.8c0.8,0.1,1.6,0.2,2.3,0.4c5.3,1.3,9.4,6,10,11.4
			c0.4,3.7-0.3,7.3-1.6,10.7c-1.6,4.2-4.2,7.8-7.4,11.1C232.9,321.8,231,323.6,229,325.4z"/>
		<path d="M6.1,311.3c0.3,0.8,0.5,1.5,0.9,2.2c1.3,2.5,3.4,3.7,6.2,3.7c1.3,0,2.5-0.2,3.7-0.8c1.5-0.8,2.3-2.2,2.1-3.8
			c-0.1-0.9-0.7-1.5-1.5-2c-0.7-0.4-1.3-0.7-2.1-1.1c1.2-2.4,2.3-4.9,3.5-7.3c1.6,0.7,3.1,1.5,4.5,2.4c2,1.4,3.6,3.1,4.2,5.6
			c1.2,4.5-0.1,8.3-3.6,11.3c-2.6,2.3-5.7,3.3-9.1,3.5c-3.1,0.2-6.2-0.2-9-1.5c-3.9-1.8-6.4-4.8-7.4-9c-0.1-0.2-0.1-0.4,0.2-0.6
			C1.1,313.1,3.6,312.2,6.1,311.3z"/>
		<path d="M40.9,311.3c0.3,0.7,0.5,1.5,0.8,2.1c1.2,2.5,3.3,3.8,6.1,3.8c1.3,0,2.6-0.2,3.8-0.8c1.5-0.8,2.2-2.2,2-3.7
			c-0.1-0.9-0.7-1.5-1.5-2c-0.7-0.4-1.3-0.7-2.1-1.1c1.2-2.4,2.3-4.9,3.5-7.3c2.9,1.3,5.6,2.8,7.5,5.4c2.5,3.6,2.1,8.7-0.7,12.3
			c-2.2,2.8-5.2,4.3-8.6,4.9c-3.9,0.7-7.7,0.3-11.3-1.3c-3.9-1.8-6.3-4.8-7.3-9c-0.1-0.3,0-0.4,0.3-0.5c2.5-0.9,4.9-1.8,7.4-2.7
			C40.8,311.3,40.8,311.3,40.9,311.3z"/>
		<path d="M8.6,307.3c-3.1-1.3-6.1-2.7-7.7-5.8c-2-3.9-1.4-8.7,2.6-11.9c3.6-2.9,7.7-3.9,12.2-3.4c4.3,0.4,7.8,2.3,10.3,5.9
			c0.5,0.7,0.8,1.5,1.3,2.3c-2.6,1.3-5.1,2.5-7.7,3.8c-0.1-0.2-0.2-0.4-0.3-0.6c-1.5-3.2-5.1-4.5-8.3-3.1c-0.6,0.3-1.2,0.7-1.6,1.2
			c-0.9,1.1-0.7,2.3,0.5,3.1c0.7,0.5,1.5,0.8,2.3,1.2C11,302.4,9.8,304.8,8.6,307.3z"/>
		<path d="M62,294.5c-2.5,1.2-5.1,2.5-7.6,3.7c-0.5-0.7-0.9-1.5-1.4-2.1c-1.8-2.3-5.6-2.8-8-1.2c-0.3,0.2-0.6,0.5-0.9,0.8
			c-0.9,1.1-0.7,2.4,0.5,3.2c0.7,0.4,1.4,0.8,2.2,1.2c-1.1,2.4-2.3,4.9-3.5,7.4c-0.7-0.3-1.4-0.6-2-0.9c-1.9-0.9-3.6-2-4.9-3.7
			c-2.4-3.1-2.7-8.5,0.7-12c2.3-2.4,5.1-3.7,8.3-4.3c3.9-0.7,7.7-0.3,11.2,1.8C59.1,289.7,60.8,291.8,62,294.5z"/>
		<path d="M165.8,287.3c0,2.7,0,5.2,0,7.9c-9.3,0-18.6,0-28,0c0-2.6,0-5.2,0-7.9C147.2,287.3,156.5,287.3,165.8,287.3z"/>
		<path d="M226.3,312c-7.9-1.1-12-6.4-11.9-13.1c0.1-7.5,5.2-12,12-12.7c0,0.2,0,0.4,0,0.6c0,2.3,0,4.7,0,7c0,0.4-0.1,0.6-0.5,0.8
			c-3.7,2.2-3.7,6.8,0,9c0.2,0.1,0.4,0.4,0.4,0.6c0,2.5,0,5,0,7.6C226.3,311.9,226.3,311.9,226.3,312z"/>
		<path d="M-7.9,287.3c0,2.6,0,5.2,0,7.9c-8.7,0-17.4,0-26.2,0c0-2.6,0-5.2,0-7.9C-25.4,287.3-16.7,287.3-7.9,287.3z"/>
		<path d="M70.3,295.2c0-2.6,0-5.2,0-7.9c8.7,0,17.5,0,26.2,0c0,2.6,0,5.2,0,7.9C87.8,295.2,79.1,295.2,70.3,295.2z"/>
		<path d="M147.6,302.4c2.8,0,5.6,0,8.5,0c0,7.2,0,14.3,0,21.5c-2.8,0-5.6,0-8.5,0C147.6,316.8,147.6,309.6,147.6,302.4z"/>
		<path d="M192.9,324.7c-5-0.6-9-2.8-11.7-7.2c2.1-1.5,4.1-3.1,6.2-4.6c1,1.3,2.2,2.3,3.6,3.1c0.5,0.3,1,0.4,1.5,0.7
			c0.2,0.1,0.4,0.3,0.4,0.4c0,2.5,0,5,0,7.5C193,324.6,193,324.6,192.9,324.7z"/>
		<path d="M187.3,297.9c-1.9-1.6-3.8-3.1-5.8-4.7c2.7-4,6.4-6.2,11.1-6.8c0,0.2,0.1,0.3,0.1,0.5c0,2.3,0,4.5,0,6.8
			c0,0.3,0,0.5-0.4,0.6c-2,0.5-3.6,1.7-4.8,3.3C187.4,297.8,187.4,297.8,187.3,297.9z"/>
	</g>
	<g>
		<path d="M62.5,89.1c0.3,0.1,5,2.4,10.6,2.4c3,0,6.2-0.6,9.1-2.6c1.4-1,1.8-2.9,0.8-4.3c-1-1.4-2.9-1.8-4.3-0.8
			c-5.3,3.6-13.5-0.2-13.6-0.2c-1.5-0.7-3.4-0.1-4.1,1.5C60.4,86.5,61,88.4,62.5,89.1z"/>
		<path d="M107.3,89.1c0.3,0.1,5,2.4,10.6,2.4c3,0,6.2-0.6,9.1-2.6c1.4-1,1.8-2.9,0.8-4.3c-1-1.4-2.9-1.8-4.3-0.8
			c-5.3,3.6-13.5-0.2-13.6-0.2c-1.5-0.7-3.4-0.1-4.1,1.5C105.1,86.5,105.8,88.4,107.3,89.1z"/>
		<path d="M92,103.4c1.5,1,3.2,1.5,5,1.5c1.6,0,3.3-0.4,4.8-1.3c3.4-1.8,5.5-5.2,5.5-8.9c0-5.6-4.7-10.1-10.5-10.1
			c-1.7,0-3.1,1.4-3.1,3.1s1.4,3.1,3.1,3.1c2.4,0,4.3,1.8,4.3,3.9c0,1.3-0.9,2.7-2.3,3.4c-0.6,0.3-2.1,0.9-3.5,0
			c-1.4-0.9-3.4-0.5-4.3,0.9C90.1,100.5,90.6,102.4,92,103.4z"/>
		<path d="M170.3,211.3c0-0.9,0-1.7,0-2.6c0-6.9-1.4-12.2-4.3-15.7c-0.9-1.1-1.8-2-2.8-2.6l1.9-16.4v0c0.3-2.8-0.5-5.6-2.4-7.7
			c-1.7-2-4.2-3.1-6.8-3.1h-21.2v-26.9c0-0.2,0-0.3,0-0.5c0.1-2.9-1.3-5.6-3.6-7.3l-3.2-2.5c2.9-3.2,5.2-6.8,6.9-11
			c3.5-8.4,3.9-17.1,3.9-22.9V63.6c0.1-4.5,0.4-9.7-0.1-12.5C133,19.4,104.8,0,70.1,0C31.4,0,0,28.9,0,65.7c0,11.8,2.7,21.5,8,30
			c-0.2,1.1-0.4,2.2-0.4,3.4c-0.2,5.6,1.5,10.5,4.7,13.9c2.3,2.4,5.3,4,8.8,4.6l0,4.1c0,1.5,1.2,2.6,2.7,2.6h9.9
			c5.2,6.6,13.1,10.8,17.2,12.4c5.5,2.1,5.7,5.5,5.7,12.5c0,0.5,0,1,0,1.5c0,0.2,0,0.3,0,0.5c-0.2,0.1-0.3,0.2-0.4,0.3
			c-12.7,4.5-24.5,13.3-33.1,25c-4.6,6.1-8.1,12.9-10.6,20c-2.6,7.5-3.9,15.4-3.9,23.3v15.8c0,2.3,1.8,4.1,4.1,4.1s4.1-1.8,4.1-4.1
			v-15.8c0-30.6,21.7-53.8,43.1-60.8c0.2-0.1,0.4-0.2,0.6-0.2h37.2c0.2,0.1,0.5,0.2,0.7,0.3c3.2,1.1,6.3,2.4,9.3,4.1h-5.2
			c-2.5,0-5,1.1-6.7,3c-1.8,2.1-2.7,4.8-2.4,7.6l4.2,39.5l0,0.2l4.2,40.1c0.5,4.9,4.5,8.6,9.2,8.6h35.7c4.7,0,8.6-3.6,9.2-8.5
			l1.8-15.7c3.1-0.1,5.7-1.3,7.8-3.3C170.3,230,170.3,221.7,170.3,211.3z M148.9,188.8c-2.8,0.3-5.1,1.4-6.9,3.3
			c-0.2,0.2-0.3,0.4-0.5,0.6c-1.6,2-2.4,4.6-2.2,7.3c0.1,1.7,0.6,3.3,1.5,4.6c-0.5,1.3-0.8,2.7-0.8,4.2c0,2.1,0.5,3.9,1.5,5.5
			c-0.3,1-0.5,2.1-0.5,3.2c0,2.1,0.6,4.1,1.8,5.8c-0.3,1-0.5,2.1-0.5,3.2c0,3.3,1.4,6.3,3.7,8.3c1,0.9,2.2,1.6,3.5,2.1l-1.8,16
			c-0.1,0.7-0.5,1.2-1,1.2H111c-0.5,0-0.9-0.5-1-1.2l-2.3-21.6h7.1c2.1,0,3.7-1.7,3.7-3.7s-1.7-3.7-3.7-3.7H107l-0.7-7h9.3
			c2.1,0,3.7-1.7,3.7-3.7s-1.7-3.7-3.7-3.7h-10.1l-0.7-7h11.5c2.1,0,3.7-1.7,3.7-3.7s-1.7-3.7-3.7-3.7h-12.3l-0.7-7h13.7
			c1.7,0,3.1-1.2,3.6-2.7c0.1-0.3,0.1-0.7,0.1-1c0-1.8-1.3-3.3-3-3.6c-0.2,0-0.5-0.1-0.7-0.1h-14.5l-0.8-7.6
			c-0.1-0.7,0.2-1.1,0.4-1.3c0.2-0.2,0.4-0.3,0.6-0.3h14.8h1.3h4.9h0h5h0h1.3h4.9H156c0.2,0,0.4,0.1,0.6,0.3
			c0.1,0.2,0.4,0.6,0.4,1.3l-1.8,15.4C152.8,188.4,150.8,188.6,148.9,188.8z M128.2,134.2c0.1,0.2,0.2,0.3,0.3,0.5
			c0,0.1,0,0.2,0.1,0.2c0,0.2,0.1,0.3,0.1,0.5c0,0.1,0,0.2,0,0.3l0,0.2l0,0.2c0,0.1,0,0.2,0,0.2v26.9h-5v-26.3l-4.7-3.8l-3.5-2.8
			l-3.6-2.8l-9-7.2l-0.1,0c-0.8-0.5-1.2-1.4-1.1-2.3c0-0.4,0.2-0.8,0.4-1.2c0.1-0.1,0.1-0.2,0.2-0.2c0.1-0.2,0.3-0.3,0.5-0.4
			c0.2-0.1,0.3-0.2,0.5-0.3c0.1,0,0.1-0.1,0.2-0.1c0.2-0.1,0.4-0.1,0.7-0.1c0.1,0,0.2,0,0.4,0c0.2,0,0.3,0.1,0.5,0.1
			c0.1,0,0.2,0.1,0.2,0.1s0.2,0.1,0.2,0.1l11,8.7l3.4,2.7l3.4,2.6l4.1,3.3l0,0l0,0C127.8,133.7,128,133.9,128.2,134.2z M53.8,129.1
			c-3.9-1.5-10.9-5.6-14.5-11c-0.4-0.8-1.9-4.4-3.1-7.4c-0.4-1-1.2-1.9-2.3-2.3c-1-0.4-2.2-0.4-3.2,0.1c0,0-0.5,0.2-1.2,0.5
			c-1.2,0.4-3.1,0.9-4.9,0.8c-2.7,0-4.8-0.8-6.2-2.4c-1.7-1.8-2.6-4.6-2.4-7.9c0.2-5.2,3.7-8.9,8.6-8.9c1.6,0,3.2,0.5,4.6,1.4
			c1,0.6,2.2,0.8,3.3,0.5c0.3-0.1,0.5-0.2,0.7-0.3c0.8-0.4,1.4-1,1.9-1.8l2.2-4.1l15.4-29.1h77.9v9.7V92c0,8.9-1.2,20.4-9.1,28.8
			l-12-9.4c-0.1-0.1-0.3-0.2-0.5-0.3c-1.4-0.9-3-1.4-4.7-1.4c-2.9,0-5.5,1.4-7.2,3.8c-2.7,3.9-1.7,9.3,2.1,12l6.2,4.9
			c-1.8,0.9-3.7,2.2-5.2,4.3c-2.8,3.8-3.8,9-2.9,16H64.8c0-0.4,0-0.8,0-1.2c0-3.6,0.1-7.3-1.2-10.9C62,134.1,58.8,130.9,53.8,129.1z
			 M101.2,150.6C101.2,150.6,101.2,150.6,101.2,150.6L101.2,150.6C101.2,150.6,101.2,150.6,101.2,150.6z M100.6,150.5
			c0.1,0,0.2,0,0.3,0C100.8,150.5,100.7,150.5,100.6,150.5z M105.8,153c0,0-0.1,0-0.1,0c-0.1-0.7-0.2-1.6-0.4-2.7
			c-0.7-5.1-0.3-8.8,1.3-10.9c1.2-1.6,3-2.3,5-3l0.1,0c0.3-0.1,0.6-0.2,0.9-0.3l0.1,0.1l4.7,3.8v19.6
			C113.8,156.9,109.9,154.8,105.8,153z M164.1,214.5c0,0.4,0,0.7,0,1.1c0,0.4,0,0.7,0,1.1c0,0.5,0,1.1,0,1.6c0,0.5,0,1-0.1,1.5
			c0,0.3,0,0.7-0.1,1c0,0.3,0,0.6-0.1,0.9c0,0.2,0,0.3,0,0.5c0,0.3-0.1,0.6-0.1,0.9c0,0.1,0,0.3-0.1,0.4c-0.1,0.4-0.1,0.8-0.2,1.2
			c0,0.2-0.1,0.3-0.1,0.5c0,0.3-0.1,0.5-0.2,0.8c0,0.2-0.1,0.3-0.1,0.4c-0.1,0.2-0.1,0.4-0.2,0.6c0,0.1-0.1,0.2-0.1,0.3
			c-0.1,0.2-0.2,0.4-0.2,0.6c-0.1,0.1-0.1,0.3-0.2,0.4c-0.1,0.3-0.2,0.5-0.4,0.8c-0.1,0.2-0.2,0.3-0.3,0.5c-0.2,0.2-0.4,0.5-0.6,0.7
			c-0.3,0.3-0.6,0.5-0.9,0.7c-0.2,0.2-0.5,0.3-0.8,0.4c-0.2,0.1-0.4,0.1-0.6,0.2c-0.1,0-0.2,0.1-0.3,0.1c-0.1,0-0.2,0-0.3,0.1
			c-0.2,0-0.4,0.1-0.6,0.1c-0.2,0-0.5,0-0.7,0c0,0,0,0,0,0c0,0,0,0,0,0c0,0,0,0-0.1,0c0,0,0,0,0,0s0,0,0,0c-0.1,0-0.1,0-0.3,0
			c0,0,0,0,0,0c-0.1,0-0.1,0-0.2,0c0,0,0,0,0,0c-0.1,0-0.1,0-0.2,0c0,0,0,0,0,0c-0.1,0-0.1,0-0.2,0c0,0,0,0,0,0c-0.1,0-0.2,0-0.3,0
			c0,0,0,0,0,0c-0.1,0-0.2,0-0.3,0c0,0,0,0,0,0c-0.1,0-0.2,0-0.3,0c0,0,0,0,0,0c-0.1,0-0.2,0-0.3,0c0,0,0,0-0.1,0
			c-0.1,0-0.2,0-0.3,0c0,0,0,0,0,0c0,0-0.1,0-0.1,0c-0.1,0-0.1,0-0.2,0c0,0,0,0,0,0c-0.1,0-0.2,0-0.4-0.1c0,0,0,0,0,0
			c-0.1,0-0.2,0-0.4-0.1c0,0,0,0-0.1,0c-0.1,0-0.2-0.1-0.4-0.1c0,0,0,0-0.1,0c-0.1,0-0.2-0.1-0.4-0.1c0,0,0,0,0,0
			c-0.1,0-0.3-0.1-0.4-0.1c0,0,0,0,0,0c0,0-0.1,0-0.1,0c-0.4-0.1-0.7-0.3-1.1-0.5c-0.2-0.1-0.4-0.2-0.5-0.3c-0.4-0.3-0.7-0.6-1-1
			c-0.1-0.2-0.3-0.4-0.4-0.6c-0.3-0.7-0.5-1.4-0.5-2.2c0-0.1,0-0.2,0-0.3c0,0,0-0.1,0-0.1c0-0.1,0-0.1,0-0.2c0,0,0-0.1,0-0.1
			c0-0.1,0-0.1,0-0.2h2.3h3.9c0.1,0,0.2,0,0.3,0c1.5-0.1,2.6-1.4,2.6-2.9c0-1.3-0.8-2.3-2-2.7c-0.3-0.1-0.6-0.2-0.9-0.2h-3.2h-3.7
			c-0.4-0.6-0.7-1.4-0.7-2.3c0-0.1,0-0.2,0-0.4c0,0,0-0.1,0-0.1c0-0.1,0-0.2,0-0.3c0,0,0-0.1,0-0.1c0-0.1,0-0.1,0-0.2h4.6h2.7
			c0.5,0,1.1-0.2,1.5-0.4c0.8-0.5,1.4-1.4,1.4-2.5c0-0.8-0.3-1.5-0.9-2.1c-0.5-0.5-1.2-0.8-2-0.8h-2h-5.9c0,0-0.1,0-0.1,0
			c0-0.1-0.1-0.1-0.1-0.2c0,0,0-0.1,0-0.1c0-0.1-0.1-0.2-0.1-0.3c0,0,0,0,0,0c0-0.1-0.1-0.2-0.1-0.4c0,0,0-0.1,0-0.1
			c0-0.1,0-0.2,0-0.3c0,0,0-0.1,0-0.1c0-0.1,0-0.3,0-0.4c0,0,0,0,0,0c0-0.2,0-0.3,0-0.4c0,0,0-0.1,0-0.1c0-0.1,0-0.2,0-0.3
			c0,0,0-0.1,0-0.1c0-0.1,0-0.2,0.1-0.3c0,0,0-0.1,0-0.1c0-0.1,0.1-0.2,0.1-0.3c0,0,0,0,0-0.1c0,0,0-0.1,0-0.1c0.1,0,0.1,0,0.2,0
			h6.3h1.6c1.4,0,2.5-1,2.8-2.2c0-0.2,0.1-0.4,0.1-0.6c0,0,0,0,0,0c0-1.6-1.3-2.9-2.9-2.9h-0.9h-7c-0.2,0-0.5,0-0.7,0.1c0,0,0,0,0,0
			c0-0.1-0.1-0.1-0.1-0.2c0,0,0-0.1-0.1-0.1c0-0.1-0.1-0.1-0.1-0.2c0,0,0-0.1,0-0.1c0-0.1,0-0.1-0.1-0.2c0,0,0-0.1,0-0.1
			c0-0.1,0-0.2-0.1-0.2c0,0,0-0.1,0-0.1c0-0.1,0-0.3,0-0.4c0-0.2,0-0.3,0-0.5c0-0.4,0.1-0.8,0.2-1.1c0-0.2,0.1-0.3,0.2-0.5
			c0.1-0.2,0.1-0.3,0.2-0.5c0.1-0.1,0.1-0.2,0.2-0.3c0.2-0.2,0.3-0.4,0.5-0.6c0.2-0.2,0.4-0.3,0.7-0.5c0.2-0.1,0.5-0.3,0.8-0.3
			c0.2-0.1,0.4-0.1,0.6-0.2c0.2,0,0.5-0.1,0.7-0.1c0.1,0,0.3,0,0.4,0c0,0,0.1,0,0.1,0c0.1,0,0.2,0,0.3,0c0,0,0.1,0,0.1,0
			c0.1,0,0.3,0,0.4,0c0,0,0.1,0,0.1,0c0.1,0,0.2,0,0.3,0c0,0,0.1,0,0.1,0c0.1,0,0.3,0,0.4,0c0,0,0,0,0,0c0.1,0,0.2,0,0.4,0
			c0,0,0.1,0,0.1,0c0.1,0,0.2,0,0.3,0c0,0,0,0,0.1,0c0.1,0,0.2,0,0.4,0c0,0,0.1,0,0.1,0c0.1,0,0.2,0,0.3,0c0,0,0.1,0,0.1,0
			c0.1,0,0.2,0,0.3,0c0,0,0,0,0,0c0.1,0,0.2,0,0.3,0c0,0,0.1,0,0.1,0c0.1,0,0.1,0,0.2,0c0,0,0,0,0.1,0c0,0,0,0,0.1,0
			c0.1,0,0.2,0,0.3,0c0,0,0.1,0,0.1,0c0.1,0,0.2,0,0.2,0c0,0,0.1,0,0.1,0c0.1,0,0.2,0,0.3,0c0,0,0,0,0.1,0c0.1,0,0.1,0,0.2,0
			c0,0,0.1,0,0.1,0c0,0,0.1,0,0.1,0c0,0,0.1,0,0.1,0c0,0,0.1,0,0.1,0c0,0,0.1,0,0.1,0c0,0,0.1,0,0.1,0c0.1,0,0.2,0,0.2,0
			c0,0,0,0,0,0c0.1,0,0.3,0,0.4,0c0,0,0,0,0,0c0.1,0,0.1,0,0.1,0c0,0,0,0,0,0c0,0,0.1,0,0.1,0c0.1,0,0.3,0,0.4,0c0.1,0,0.1,0,0.2,0
			c0.2,0,0.4,0.1,0.6,0.2c0.1,0,0.2,0.1,0.2,0.1s0.2,0.1,0.2,0.1c0.1,0.1,0.3,0.1,0.4,0.2c0.1,0.1,0.3,0.2,0.4,0.3
			c0,0,0.1,0.1,0.1,0.1c0.1,0.1,0.2,0.2,0.3,0.2c0.1,0.1,0.2,0.2,0.3,0.3c0.1,0.1,0.3,0.3,0.4,0.5c0,0.1,0.1,0.1,0.1,0.2
			c0.1,0.2,0.3,0.4,0.4,0.6c0,0.1,0.1,0.1,0.1,0.2c0.2,0.3,0.4,0.6,0.5,1c0,0,0,0,0,0c0.2,0.3,0.3,0.7,0.5,1.1
			c0.1,0.2,0.2,0.4,0.2,0.6c0.1,0.2,0.1,0.5,0.2,0.7c0.1,0.2,0.1,0.5,0.2,0.7c0.4,1.8,0.7,4.1,0.7,6.9c0,1,0,2,0,3
			c0,0.4,0,0.8,0,1.2c0,0.4,0,0.8,0,1.1C164.1,214.2,164.1,214.3,164.1,214.5z"/>
	</g>
</g>
</svg>
